<?xml version="1.0" standalone="no"?>
<!DOCTYPE svg PUBLIC "-//W3C//DTD SVG 20010904//EN"
 "http://www.w3.org/TR/2001/REC-SVG-20010904/DTD/svg10.dtd">
<svg version="1.0" xmlns="http://www.w3.org/2000/svg"
 width="265.000000pt" height="265.000000pt" viewBox="0 0 265.000000 265.000000"
 preserveAspectRatio="xMidYMid meet">
<metadata>
Created by potrace 1.14, written by Peter Selinger 2001-2017
</metadata>
<g transform="translate(0.000000,265.000000) scale(0.100000,-0.100000)"
fill="#000000" stroke="none">
<path d="M120 2115 l0 -335 335 0 335 0 0 335 0 335 -335 0 -335 0 0 -335z"/>
<path d="M1850 2115 l0 -335 335 0 335 0 0 335 0 335 -335 0 -335 0 0 -335z"/>
<path d="M1897 1445 c-82 -123 -97 -151 -97 -185 l0 -40 95 0 95 0 0 -40 0
-40 45 0 45 0 0 40 c0 33 3 40 20 40 17 0 20 7 20 45 0 38 -3 45 -20 45 -19 0
-20 7 -20 140 l0 140 -43 0 -44 0 -96 -145z"/>
<path d="M202 1559 c-149 -74 -162 -296 -23 -394 36 -25 54 -30 115 -33 82 -4
129 13 178 65 81 85 77 245 -8 325 -65 61 -181 77 -262 37z m151 -73 c56 -23
87 -69 87 -129 0 -66 -30 -111 -88 -134 -54 -20 -109 -7 -146 38 -62 73 -41
178 45 221 41 22 59 22 102 4z"/>
<path d="M1342 1559 c-94 -47 -142 -163 -111 -273 13 -47 81 -122 127 -142 50
-21 155 -18 200 5 64 33 104 90 117 169 l7 42 -116 0 -116 0 0 -40 0 -40 60 0
c58 0 60 -1 50 -21 -13 -23 -67 -49 -102 -49 -43 0 -103 38 -127 81 -42 73
-15 151 65 189 53 26 105 21 155 -16 l33 -24 30 29 c30 30 30 30 10 52 -53 60
-198 79 -282 38z"/>
<path d="M2322 1560 c-33 -20 -62 -71 -62 -110 0 -17 6 -20 40 -20 30 0 42 5
47 18 19 53 70 69 97 30 30 -42 9 -79 -123 -218 -44 -47 -81 -93 -81 -102 0
-16 14 -18 155 -18 l155 0 0 40 0 40 -71 0 -71 0 52 61 c67 81 83 114 84 170
0 52 -31 105 -71 120 -42 16 -115 10 -151 -11z"/>
<path d="M700 1355 l0 -215 45 0 44 0 3 130 3 131 85 -131 85 -130 43 0 42 0
0 215 0 215 -45 0 -45 0 0 -132 0 -131 -41 64 c-140 216 -125 199 -174 199
l-45 0 0 -215z"/>
<path d="M980 555 l0 -335 335 0 335 0 0 335 0 335 -335 0 -335 0 0 -335z"/>
</g>
</svg>
